<!-- @import url('https://fonts.googleapis.com/css?family=Roboto:400,100,100italic,300,300italic,400italic,500,500italic,700,700italic,900,900italic'); -->

<svg xmlns="http://www.w3.org/2000/svg" viewBox="0 0 582 207"><defs><style>.cls-1{fill:#b0bfcc;}.cls-2,.cls-4{fill:#02b8f2;}.cls-3,.cls-4{font-size:68px;}.cls-3{fill:#9dd6fc;font-family:Rboto, Roboto;}.cls-3,.cls-8{letter-spacing:0.01em;}.cls-4{font-family:Eurostile-Hea, Eurostile;letter-spacing:0.01em;}.cls-5{letter-spacing:0.01em;}.cls-6{letter-spacing:0.03em;}.cls-7{letter-spacing:0.01em;}.cls-9{letter-spacing:0.01em;}.cls-10{letter-spacing:0.01em;}</style></defs><g id="Layer_4" data-name="Layer 4"><path class="cls-1" d="M105.82,41.56V37S105,33.86,109,33.86A3.14,3.14,0,0,1,112.2,37V68.6h16a277.42,277.42,0,0,0,.66-33.4c-.09-2-.8-8.75-4-11.93-2.8-2.79-6.36-4.77-15.31-4.77-8.55,0-11.09,1.12-13.79,3.18C93.62,23.35,89.92,28,89.92,35.2V95.64H74.57L25.5,147.33h79.55l1.57-15.11H64.47l13.59-15.45h28.56Z"/><rect class="cls-1" x="112.19" y="70.99" width="16.05" height="7.16"/><path class="cls-2" d="M176.2,183.92c0,5.71-11.92,8-26.63,8-6.29,0-10.72-.84-14.33-2.27-.14,2.14-4.18,3.86-9.14,3.86-4.67,0-8.52-1.52-9.07-3.48-2.11.2-4.22.3-6.17.3-9.82,0-17.76-1.88-17.76-5.17,0-3,6.75-6.22,15.5-6.7l6.77-95.49h7.95s.09,15.73,3.48,19.08,14.29,0,19.06,0c3.84,0,11.25-1.79,14,2.39,1.59,2.39.07,7.13-.79,8.75a83,83,0,0,0-6.37,17.49c-1.94,9.55,1.75,34,3.69,45.52C167.81,176.78,176.2,179.13,176.2,183.92Z"/><path class="cls-1" d="M177,146.14H157.91a12.21,12.21,0,0,1-1.59-6.36c0-4.77,2.39-6.36,2.39-6.36H177Z"/><text class="cls-3" transform="translate(166.51 120.81)">sink</text><text class="cls-4" transform="translate(283.51 120.81)">o<tspan class="cls-5" x="36.24" y="0">v</tspan><tspan x="68" y="0">e</tspan><tspan class="cls-6" x="103.29" y="0">r</tspan><tspan class="cls-7" x="134.84" y="0">f</tspan><tspan class="cls-8" x="158.23" y="0">l</tspan><tspan class="cls-9" x="175.16" y="0">o</tspan><tspan class="cls-10" x="211.48" y="0">w</tspan></text></g></svg>
